# xmcd
# Copyright (C) 1995-1998 Ti Kan
#
# Track frame offsets:
#       150
#       21870
#       41308
#
# Disc length: 817 seconds
#
# Revision: 0
# Processed by: cddbd v1.5.2PL0 Copyright (c) Steve Scherf et al.
# Submitted via: CD-Transfer v1.0
#
DISCID=18032f03
DTITLE=Jonny Hill - 
DYEAR=11
DGENRE=
TTITLE0=Ruf Teddybär 1-4
TTITLE1=Hallo Teddybär
TTITLE2=Teddybär Ich Danke Dir
EXTD=
EXTT0=
EXTT1=
EXTT2=
PLAYORDER=
